<svg width="20" height="21" viewBox="0 0 20 21" fill="none" xmlns="http://www.w3.org/2000/svg">
<path fill-rule="evenodd" clip-rule="evenodd" d="M4 0.646484H16C18.2091 0.646484 20 2.43735 20 4.64648V16.6465C20 18.8556 18.2091 20.6465 16 20.6465H4C1.79086 20.6465 0 18.8556 0 16.6465V4.64648C0 2.43735 1.79086 0.646484 4 0.646484ZM17.7041 18.3506C18.1561 17.8986 18.41 17.2857 18.41 16.6465V4.64648C18.41 4.00731 18.1561 3.39432 17.7041 2.94236C17.2522 2.49039 16.6392 2.23648 16 2.23648H4C2.66899 2.23648 1.59 3.31548 1.59 4.64648V16.6465C1.59 17.2857 1.84391 17.8986 2.29587 18.3506C2.74784 18.8026 3.36083 19.0565 4 19.0565H16C16.6392 19.0565 17.2522 18.8026 17.7041 18.3506Z" fill="black"/>
<path d="M14 9.89648H10.75V6.64648C10.75 6.23227 10.4142 5.89648 10 5.89648C9.58579 5.89648 9.25 6.23227 9.25 6.64648V9.89648H6C5.58579 9.89648 5.25 10.2323 5.25 10.6465C5.25 11.0607 5.58579 11.3965 6 11.3965H9.25V14.6465C9.25 15.0607 9.58579 15.3965 10 15.3965C10.4142 15.3965 10.75 15.0607 10.75 14.6465V11.3965H14C14.4142 11.3965 14.75 11.0607 14.75 10.6465C14.75 10.2323 14.4142 9.89648 14 9.89648Z" fill="black"/>
</svg>
