<svg width="24" height="25" viewBox="0 0 24 25" fill="none" xmlns="http://www.w3.org/2000/svg">
<path d="M23.3735 4.28467H20.3735V9.28467H23.3735V4.28467Z" fill="#F91641"/>
<path d="M23.3735 11.2847H20.3735V16.2847H23.3735V11.2847Z" fill="#F91641"/>
<path d="M16.3735 0.284668H0.373535V24.2847H16.3735C18.0275 24.2847 19.3735 22.9387 19.3735 21.2847V3.28467C19.3735 1.63067 18.0275 0.284668 16.3735 0.284668ZM9.87354 6.28467C11.2545 6.28467 12.3735 7.40367 12.3735 8.78467C12.3735 10.1657 11.2545 11.2847 9.87354 11.2847C8.49254 11.2847 7.37354 10.1657 7.37354 8.78467C7.37354 7.40367 8.49254 6.28467 9.87354 6.28467ZM14.3735 17.2847H5.37354V15.6637C5.37354 14.7727 5.95854 13.9937 6.81354 13.7417C7.60854 13.5067 8.67654 13.2847 9.87354 13.2847C11.0705 13.2847 12.1385 13.5067 12.9335 13.7417C13.7885 13.9937 14.3735 14.7727 14.3735 15.6637V17.2847Z" fill="#F91641"/>
</svg>
