<svg width="16" height="14" viewBox="0 0 16 14" fill="none" xmlns="http://www.w3.org/2000/svg">
<path fill-rule="evenodd" clip-rule="evenodd" d="M3.86147 5.53448C4.34479 5.53448 4.80832 5.32991 5.15008 4.96577C5.49184 4.60162 5.68383 4.10774 5.68383 3.59276C5.68383 3.07778 5.49184 2.5839 5.15008 2.21975C4.80832 1.85561 4.34479 1.65104 3.86147 1.65104C3.37815 1.65104 2.91463 1.85561 2.57287 2.21975C2.23111 2.5839 2.03911 3.07778 2.03911 3.59276C2.03911 4.10774 2.23111 4.60162 2.57287 4.96577C2.91463 5.32991 3.37815 5.53448 3.86147 5.53448ZM3.86147 6.50534C4.22045 6.50534 4.5759 6.43001 4.90755 6.28364C5.2392 6.13727 5.54055 5.92273 5.79438 5.65227C6.04821 5.38181 6.24956 5.06073 6.38694 4.70736C6.52431 4.35399 6.59501 3.97525 6.59501 3.59276C6.59501 3.21027 6.52431 2.83153 6.38694 2.47816C6.24956 2.12479 6.04821 1.80371 5.79438 1.53325C5.54055 1.26279 5.2392 1.04825 4.90755 0.901883C4.5759 0.755512 4.22045 0.680176 3.86147 0.680176C3.13649 0.680176 2.4412 0.987037 1.92857 1.53325C1.41593 2.07947 1.12793 2.82029 1.12793 3.59276C1.12793 4.36523 1.41593 5.10605 1.92857 5.65227C2.4412 6.19848 3.13649 6.50534 3.86147 6.50534Z" fill="url(#paint0_linear_181_9098)"/>
<path fill-rule="evenodd" clip-rule="evenodd" d="M2.81728 5.4329C2.85971 5.47799 2.89337 5.53156 2.91634 5.59053C2.93931 5.64951 2.95113 5.71273 2.95113 5.77658C2.95113 5.84043 2.93931 5.90365 2.91634 5.96263C2.89337 6.0216 2.85971 6.07517 2.81728 6.12027L2.5093 6.44745C1.91661 7.07913 1.58362 7.93575 1.58354 8.82897V10.6309C1.58354 10.7596 1.53554 10.8831 1.4501 10.9741C1.36466 11.0652 1.24878 11.1163 1.12795 11.1163C1.00712 11.1163 0.891242 11.0652 0.805803 10.9741C0.720363 10.8831 0.672363 10.7596 0.672363 10.6309V8.82897C0.672492 7.67829 1.10152 6.57476 1.8651 5.76105L2.17217 5.4329C2.21449 5.38769 2.26476 5.35182 2.32011 5.32735C2.37546 5.30288 2.4348 5.29028 2.49472 5.29028C2.55465 5.29028 2.61399 5.30288 2.66934 5.32735C2.72469 5.35182 2.77496 5.38769 2.81728 5.4329ZM13.5619 5.14164C13.5195 5.18673 13.4858 5.2403 13.4629 5.29927C13.4399 5.35825 13.4281 5.42147 13.4281 5.48532C13.4281 5.54917 13.4399 5.6124 13.4629 5.67137C13.4858 5.73035 13.5195 5.78391 13.5619 5.82901L13.8699 6.15619C14.4626 6.78787 14.7956 7.64449 14.7957 8.53771V10.6309C14.7957 10.7596 14.8437 10.8831 14.9291 10.9741C15.0145 11.0652 15.1304 11.1163 15.2513 11.1163C15.3721 11.1163 15.488 11.0652 15.5734 10.9741C15.6588 10.8831 15.7068 10.7596 15.7068 10.6309V8.53771C15.7067 7.38703 15.2777 6.2835 14.5141 5.46979L14.207 5.14164C14.1647 5.09643 14.1144 5.06056 14.0591 5.03609C14.0037 5.01162 13.9444 4.99902 13.8845 4.99902C13.8246 4.99902 13.7652 5.01162 13.7099 5.03609C13.6545 5.06056 13.6042 5.09643 13.5619 5.14164Z" fill="url(#paint1_linear_181_9098)"/>
<path fill-rule="evenodd" clip-rule="evenodd" d="M12.0622 5.53448C11.5788 5.53448 11.1153 5.32991 10.7735 4.96577C10.4318 4.60162 10.2398 4.10774 10.2398 3.59276C10.2398 3.07778 10.4318 2.5839 10.7735 2.21975C11.1153 1.85561 11.5788 1.65104 12.0622 1.65104C12.5455 1.65104 13.009 1.85561 13.3508 2.21975C13.6925 2.5839 13.8845 3.07778 13.8845 3.59276C13.8845 4.10774 13.6925 4.60162 13.3508 4.96577C13.009 5.32991 12.5455 5.53448 12.0622 5.53448ZM12.0622 6.50535C11.7032 6.50535 11.3477 6.43001 11.0161 6.28364C10.6844 6.13727 10.3831 5.92273 10.1292 5.65227C9.87541 5.38181 9.67406 5.06073 9.53669 4.70736C9.39931 4.35399 9.32861 3.97525 9.32861 3.59276C9.32861 3.21027 9.39931 2.83153 9.53669 2.47816C9.67406 2.12479 9.87541 1.80371 10.1292 1.53325C10.3831 1.26279 10.6844 1.04825 11.0161 0.901883C11.3477 0.755512 11.7032 0.680176 12.0622 0.680176C12.7871 0.680176 13.4824 0.987037 13.9951 1.53325C14.5077 2.07947 14.7957 2.82029 14.7957 3.59276C14.7957 4.36523 14.5077 5.10605 13.9951 5.65227C13.4824 6.19848 12.7871 6.50534 12.0622 6.50535ZM7.96184 9.66065C7.35769 9.66065 6.77828 9.91636 6.35108 10.3715C5.92388 10.8267 5.68389 11.4441 5.68389 12.0878V13.3499C5.68389 13.4787 5.63589 13.6021 5.55045 13.6932C5.46501 13.7842 5.34913 13.8353 5.2283 13.8353C5.10747 13.8353 4.99158 13.7842 4.90614 13.6932C4.8207 13.6021 4.77271 13.4787 4.77271 13.3499V12.0878C4.77271 11.1866 5.1087 10.3223 5.70678 9.68504C6.30486 9.04779 7.11603 8.68978 7.96184 8.68978C8.80765 8.68978 9.61882 9.04779 10.2169 9.68504C10.815 10.3223 11.151 11.1866 11.151 12.0878V13.3499C11.151 13.4787 11.103 13.6021 11.0175 13.6932C10.9321 13.7842 10.8162 13.8353 10.6954 13.8353C10.5746 13.8353 10.4587 13.7842 10.3732 13.6932C10.2878 13.6021 10.2398 13.4787 10.2398 13.3499V12.0878C10.2398 11.7691 10.1809 11.4534 10.0664 11.159C9.95191 10.8645 9.78412 10.5969 9.57259 10.3715C9.36107 10.1462 9.10995 9.96738 8.83357 9.8454C8.5572 9.72342 8.26098 9.66065 7.96184 9.66065Z" fill="url(#paint2_linear_181_9098)"/>
<path fill-rule="evenodd" clip-rule="evenodd" d="M7.96181 8.20392C8.44513 8.20392 8.90866 7.99934 9.25042 7.6352C9.59218 7.27106 9.78418 6.77717 9.78418 6.26219C9.78418 5.74722 9.59218 5.25333 9.25042 4.88919C8.90866 4.52505 8.44513 4.32047 7.96181 4.32047C7.47849 4.32047 7.01497 4.52505 6.67321 4.88919C6.33145 5.25333 6.13945 5.74722 6.13945 6.26219C6.13945 6.77717 6.33145 7.27106 6.67321 7.6352C7.01497 7.99934 7.47849 8.20392 7.96181 8.20392ZM7.96181 9.17478C8.68679 9.17478 9.38208 8.86792 9.89472 8.3217C10.4074 7.77549 10.6954 7.03466 10.6954 6.26219C10.6954 5.48973 10.4074 4.7489 9.89472 4.20269C9.38208 3.65647 8.68679 3.34961 7.96181 3.34961C7.23683 3.34961 6.54155 3.65647 6.02891 4.20269C5.51627 4.7489 5.22827 5.48973 5.22827 6.26219C5.22827 7.03466 5.51627 7.77549 6.02891 8.3217C6.54155 8.86792 7.23683 9.17478 7.96181 9.17478Z" fill="url(#paint3_linear_181_9098)"/>
<defs>
<linearGradient id="paint0_linear_181_9098" x1="3.86147" y1="0.680176" x2="3.86147" y2="6.50534" gradientUnits="userSpaceOnUse">
<stop stop-color="#FDC830"/>
<stop offset="1" stop-color="#F37335"/>
</linearGradient>
<linearGradient id="paint1_linear_181_9098" x1="8.1896" y1="4.99902" x2="8.1896" y2="11.1163" gradientUnits="userSpaceOnUse">
<stop stop-color="#FDC830"/>
<stop offset="1" stop-color="#F37335"/>
</linearGradient>
<linearGradient id="paint2_linear_181_9098" x1="9.7842" y1="0.680176" x2="9.7842" y2="13.8353" gradientUnits="userSpaceOnUse">
<stop stop-color="#FDC830"/>
<stop offset="1" stop-color="#F37335"/>
</linearGradient>
<linearGradient id="paint3_linear_181_9098" x1="7.96181" y1="3.34961" x2="7.96181" y2="9.17478" gradientUnits="userSpaceOnUse">
<stop stop-color="#FDC830"/>
<stop offset="1" stop-color="#F37335"/>
</linearGradient>
</defs>
</svg>
