<svg width="29" height="25" viewBox="0 0 29 25" fill="none" xmlns="http://www.w3.org/2000/svg">
<path d="M7.20111 11.8369C8.61789 11.8369 10.0085 9.74718 10.0085 7.61818C10.0085 5.80314 8.90647 4.63037 7.20111 4.63037C5.49576 4.63037 4.39386 5.80314 4.39386 7.61818C4.39386 9.74718 5.78434 11.8369 7.20111 11.8369Z" fill="#F91641"/>
<path d="M22.6785 11.8369C24.0953 11.8369 25.4858 9.74718 25.4858 7.61818C25.4858 5.80314 24.3839 4.63037 22.6785 4.63037C20.9731 4.63037 19.8712 5.80314 19.8712 7.61818C19.8712 9.74718 21.2617 11.8369 22.6785 11.8369Z" fill="#F91641"/>
<path d="M6.23115 13.0732C6.19259 13.54 6.06513 14.0905 5.72375 14.5371C5.73865 15.173 6.11 15.7164 6.63267 15.9491C7.18192 15.3244 7.86702 14.8176 8.64103 14.4825C8.32935 14.0459 8.20821 13.5216 8.17116 13.0732C7.86203 13.1843 7.53791 13.2463 7.20115 13.2463C6.8643 13.2463 6.54028 13.1842 6.23115 13.0732Z" fill="#F91641"/>
<path d="M21.7085 13.0732C21.6716 13.5215 21.5504 14.0459 21.2386 14.4825C22.0127 14.8176 22.6978 15.3244 23.247 15.9491C23.7697 15.7164 24.141 15.173 24.1559 14.5371C23.8145 14.0905 23.687 13.54 23.6485 13.0732C23.3394 13.1843 23.0153 13.2463 22.6785 13.2463C22.3418 13.2463 22.0177 13.1842 21.7085 13.0732Z" fill="#F91641"/>
<path d="M28.9332 20.7136C28.7895 19.4459 28.6706 18.4702 28.5891 17.8917C28.4313 16.7716 27.5661 15.8169 26.4362 15.5163L25.393 15.2388C25.1996 16.0403 24.6994 16.7104 24.0349 17.1034C24.313 17.6434 24.5047 18.2302 24.591 18.8432C24.6835 19.5004 24.8056 20.481 24.9548 21.7646H28.0576C28.3134 21.7646 28.5479 21.6525 28.7176 21.4488C28.8873 21.245 28.9638 20.9839 28.9332 20.7136Z" fill="#F91641"/>
<path d="M4.48659 15.2388L3.44333 15.5163C2.31343 15.8169 1.44826 16.7717 1.29045 17.8918C1.20899 18.4702 1.09002 19.4459 0.946339 20.7135C0.915793 20.9839 0.992251 21.2449 1.16195 21.4486C1.33164 21.6523 1.56611 21.7644 1.82197 21.7644H4.92488C5.07393 20.4808 5.19601 19.5003 5.2885 18.843C5.37485 18.23 5.56652 17.6432 5.84463 17.1032C5.18027 16.7104 4.67995 16.0402 4.48659 15.2388Z" fill="#F91641"/>
<path d="M23.2814 19.052C23.0507 17.4139 21.7916 16.0196 20.1484 15.5824L18.4735 15.1367C18.1646 16.9143 16.6981 18.2652 14.9398 18.2652C13.1816 18.2652 11.7151 16.9142 11.4062 15.1367L9.73138 15.5824C8.08806 16.0196 6.82891 17.4138 6.59831 19.052C6.48499 19.8562 6.32604 21.1596 6.1258 22.926C6.07536 23.3716 6.20151 23.8018 6.48132 24.1376C6.76113 24.4733 7.14738 24.6582 7.56917 24.6582H22.3107C22.7325 24.6582 23.1188 24.4733 23.3986 24.1376C23.6783 23.8018 23.8044 23.3716 23.754 22.9259C23.5536 21.1596 23.3948 19.8562 23.2814 19.052Z" fill="#F91641"/>
<path d="M14.9398 11.055C17.2443 11.055 19.0317 7.80719 19.0317 5.01334C19.0317 2.36769 17.4256 0.658203 14.9398 0.658203C12.454 0.658203 10.8478 2.36769 10.8478 5.01334C10.8478 7.80719 12.6353 11.055 14.9398 11.055Z" fill="#F91641"/>
<path d="M13.3804 12.1201C13.3654 12.7994 13.2255 13.718 12.6696 14.3984C12.6696 15.7307 13.6881 16.8555 14.9399 16.8555C16.1917 16.8555 17.2101 15.7307 17.2101 14.3984C16.6543 13.718 16.5144 12.7994 16.4994 12.1201C16.0095 12.3413 15.487 12.4643 14.9399 12.4643C14.3928 12.4643 13.8702 12.3413 13.3804 12.1201Z" fill="#F91641"/>
</svg>
