<svg width="19" height="19" viewBox="0 0 19 19" fill="none" xmlns="http://www.w3.org/2000/svg">
<path d="M14.7714 11.605L14.0236 10.3635C13.8665 10.0868 13.7244 9.56331 13.7244 9.25668V7.36459C13.7244 5.60711 12.6924 4.08895 11.2041 3.37848C10.8152 2.69044 10.0973 2.26416 9.27463 2.26416C8.45946 2.26416 7.72656 2.7054 7.33767 3.40091C5.87933 4.12634 4.86972 5.62954 4.86972 7.36459V9.25668C4.86972 9.56331 4.72762 10.0868 4.57057 10.356L3.81523 11.605C3.51609 12.106 3.44878 12.6595 3.63574 13.168C3.81523 13.6691 4.24151 14.058 4.79493 14.2449C6.24579 14.7385 7.77143 14.9778 9.29707 14.9778C10.8227 14.9778 12.3484 14.7385 13.7992 14.2524C14.3227 14.0804 14.7266 13.684 14.921 13.168C15.1154 12.652 15.0631 12.0836 14.7714 11.605Z" fill="url(#paint0_linear_443_701)"/>
<path d="M11.3983 15.7331C11.0842 16.6006 10.254 17.2213 9.28183 17.2213C8.69101 17.2213 8.10768 16.982 7.69636 16.5557C7.45704 16.3314 7.27755 16.0322 7.17285 15.7256C7.27007 15.7405 7.3673 15.748 7.472 15.763C7.64401 15.7854 7.82349 15.8079 8.00298 15.8228C8.42926 15.8602 8.86302 15.8826 9.29678 15.8826C9.72307 15.8826 10.1493 15.8602 10.5682 15.8228C10.7252 15.8079 10.8823 15.8004 11.0318 15.7779C11.1515 15.763 11.2711 15.748 11.3983 15.7331Z" fill="url(#paint1_linear_443_701)"/>
<defs>
<linearGradient id="paint0_linear_443_701" x1="9.28393" y1="2.26416" x2="9.28393" y2="14.9778" gradientUnits="userSpaceOnUse">
<stop stop-color="#192B75"/>
<stop offset="1" stop-color="#2F50DB"/>
</linearGradient>
<linearGradient id="paint1_linear_443_701" x1="9.28557" y1="15.7256" x2="9.28557" y2="17.2213" gradientUnits="userSpaceOnUse">
<stop stop-color="#192B75"/>
<stop offset="1" stop-color="#2F50DB"/>
</linearGradient>
</defs>
</svg>
