<svg width="25" height="25" viewBox="0 0 25 25" fill="none" xmlns="http://www.w3.org/2000/svg">
<g clip-path="url(#clip0_272_102350)">
<path d="M21.7719 10.2221C21.9596 10.2224 22.1406 10.2927 22.2793 10.4193C22.418 10.5458 22.5047 10.7195 22.5223 10.9064V21.5489C22.5205 22.1322 22.2947 22.6926 21.8916 23.1142C21.4884 23.5358 20.9387 23.7864 20.356 23.8142H5.15926C4.57592 23.8125 4.01555 23.5867 3.59395 23.1835C3.17235 22.7804 2.92174 22.2306 2.8939 21.648V10.9772C2.89425 10.7894 2.96455 10.6085 3.09107 10.4698C3.2176 10.331 3.39128 10.2444 3.57823 10.2268H21.7719V10.2221ZM15.9244 13.37L15.8725 13.4077L11.5495 18.0942L9.59086 16.2064C9.4915 16.1069 9.35867 16.0479 9.21823 16.0409C9.07778 16.034 8.93976 16.0795 8.83102 16.1686L8.78383 16.2064L7.99095 16.9238C7.94241 16.9649 7.90268 17.0153 7.87414 17.0722C7.8456 17.129 7.82885 17.191 7.82488 17.2545C7.82091 17.318 7.82982 17.3816 7.85106 17.4416C7.8723 17.5015 7.90543 17.5565 7.94848 17.6034L7.99095 17.6506L10.7566 20.2699C10.972 20.482 11.2613 20.6021 11.5636 20.605C11.7141 20.609 11.8638 20.5812 12.0028 20.5234C12.1419 20.4657 12.2672 20.3793 12.3706 20.2699L14.6832 17.8346L14.8673 17.6411L15.1127 17.3816L17.4724 14.8802C17.5535 14.785 17.6022 14.6665 17.6115 14.5418C17.6208 14.4171 17.5903 14.2927 17.5243 14.1865L17.4913 14.144L16.6795 13.4172C16.5822 13.3166 16.4508 13.2561 16.3111 13.2473C16.1714 13.2386 16.0335 13.2824 15.9244 13.37ZM21.7719 2.6709C22.3723 2.67215 22.9478 2.91122 23.3723 3.33578C23.7969 3.76035 24.036 4.33583 24.0372 4.93625V7.20161C24.0372 7.40188 23.9577 7.59395 23.8161 7.73556C23.6744 7.87717 23.4824 7.95673 23.2821 7.95673H2.13879C1.93852 7.95673 1.74645 7.87717 1.60484 7.73556C1.46322 7.59395 1.38367 7.40188 1.38367 7.20161V4.93625C1.38491 4.33583 1.62399 3.76035 2.04855 3.33578C2.47312 2.91122 3.0486 2.67215 3.64902 2.6709H21.7719Z" fill="url(#paint0_linear_272_102350)"/>
</g>
<defs>
<linearGradient id="paint0_linear_272_102350" x1="12.7104" y1="2.6709" x2="12.7104" y2="23.8142" gradientUnits="userSpaceOnUse">
<stop stop-color="#192B75"/>
<stop offset="1" stop-color="#2F50DB"/>
</linearGradient>
<clipPath id="clip0_272_102350">
<rect width="24" height="24" fill="white" transform="translate(0.439758 0.97168)"/>
</clipPath>
</defs>
</svg>
