<svg width="20" height="20" viewBox="0 0 20 20" fill="none" xmlns="http://www.w3.org/2000/svg">
<path d="M16.4102 6.14198V14.0907C16.4102 15.3086 16.2981 16.174 16.0096 16.791C16.0096 16.799 16.0016 16.8151 15.9936 16.8231C15.8173 17.0474 15.5849 17.1596 15.3125 17.1596C14.8878 17.1596 14.375 16.8792 13.8221 16.2862C13.1651 15.5811 12.1554 15.6372 11.5785 16.4064L10.7692 17.4801C10.4487 17.9128 10.024 18.1292 9.59935 18.1292C9.17467 18.1292 8.74997 17.9128 8.42946 17.4801L7.61219 16.3984C7.04328 15.6372 6.04165 15.5811 5.3846 16.2782L5.37658 16.2862C4.47113 17.2558 3.66988 17.4 3.20513 16.8231C3.19712 16.8151 3.18909 16.799 3.18909 16.791C2.90063 16.174 2.78845 15.3086 2.78845 14.0907V6.14198C2.78845 4.92403 2.90063 4.05864 3.18909 3.44166C3.18909 3.43364 3.18911 3.42563 3.20513 3.41762C3.66187 2.83268 4.47113 2.97691 5.37658 3.94646L5.3846 3.95448C6.04165 4.65159 7.04328 4.5955 7.61219 3.83428L8.42946 2.75256C8.74997 2.31986 9.17467 2.10352 9.59935 2.10352C10.024 2.10352 10.4487 2.31986 10.7692 2.75256L11.5785 3.82627C12.1554 4.5955 13.1651 4.65159 13.8221 3.94646C14.375 3.35352 14.8878 3.07307 15.3125 3.07307C15.5849 3.07307 15.8173 3.19326 15.9936 3.41762C16.0096 3.42563 16.0096 3.43364 16.0096 3.44166C16.2981 4.05864 16.4102 4.92403 16.4102 6.14198Z" stroke="url(#paint0_linear_206_7545)" stroke-width="1.44231" stroke-linecap="round" stroke-linejoin="round"/>
<path d="M6.79486 8.71289H13.2051" stroke="url(#paint1_linear_206_7545)" stroke-width="1.44231" stroke-linecap="round" stroke-linejoin="round"/>
<path d="M6.79486 11.5176H11.6026" stroke="url(#paint2_linear_206_7545)" stroke-width="1.44231" stroke-linecap="round" stroke-linejoin="round"/>
<defs>
<linearGradient id="paint0_linear_206_7545" x1="9.59935" y1="2.10352" x2="9.59935" y2="18.1292" gradientUnits="userSpaceOnUse">
<stop stop-color="#192B75"/>
<stop offset="0.610618" stop-color="#2F50DB"/>
</linearGradient>
<linearGradient id="paint1_linear_206_7545" x1="9.99999" y1="8.71289" x2="9.99999" y2="9.71289" gradientUnits="userSpaceOnUse">
<stop stop-color="#192B75"/>
<stop offset="0.610618" stop-color="#2F50DB"/>
</linearGradient>
<linearGradient id="paint2_linear_206_7545" x1="9.19871" y1="11.5176" x2="9.19871" y2="12.5176" gradientUnits="userSpaceOnUse">
<stop stop-color="#192B75"/>
<stop offset="0.610618" stop-color="#2F50DB"/>
</linearGradient>
</defs>
</svg>
