<svg width="27" height="27" viewBox="0 0 27 27" fill="none" xmlns="http://www.w3.org/2000/svg">
<g clip-path="url(#clip0_272_102388)">
<path d="M22.9368 0.345703H3.32837C2.72705 0.345703 2.23901 0.832646 2.23901 1.43506V26.4903L6.59644 23.2222L9.86452 26.4903L13.1326 23.2222L16.4007 26.4903L19.6687 23.2222L24.0262 26.4903V1.43506C24.0262 0.832646 23.5381 0.345703 22.9368 0.345703ZM14.2219 17.7754H6.59644V15.5967H14.2219V17.7754ZM14.2219 13.418H6.59644V11.2393H14.2219V13.418ZM14.2219 9.06056H6.59644V6.88185H14.2219V9.06056ZM19.6687 17.7754H16.4007V15.5967H19.6687V17.7754ZM19.6687 13.418H16.4007V11.2393H19.6687V13.418ZM19.6687 9.06056H16.4007V6.88185H19.6687V9.06056Z" fill="url(#paint0_linear_272_102388)"/>
</g>
<defs>
<linearGradient id="paint0_linear_272_102388" x1="13.1326" y1="0.345703" x2="13.1326" y2="26.4903" gradientUnits="userSpaceOnUse">
<stop stop-color="#FDC830"/>
<stop offset="1" stop-color="#F37335"/>
</linearGradient>
<clipPath id="clip0_272_102388">
<rect width="26.1446" height="26.1446" fill="white" transform="translate(0.0603027 0.345703)"/>
</clipPath>
</defs>
</svg>
