<svg width="21" height="27" viewBox="0 0 21 27" fill="none" xmlns="http://www.w3.org/2000/svg">
<path d="M17.2229 0.224121H4.15058C3.28383 0.224121 2.45259 0.568435 1.8397 1.18132C1.22682 1.7942 0.882507 2.62545 0.882507 3.49219V23.1006C0.882507 23.9674 1.22682 24.7986 1.8397 25.4115C2.45259 26.0244 3.28383 26.3687 4.15058 26.3687H17.2229C18.0896 26.3687 18.9209 26.0244 19.5337 25.4115C20.1466 24.7986 20.4909 23.9674 20.4909 23.1006V3.49219C20.4909 2.62545 20.1466 1.7942 19.5337 1.18132C18.9209 0.568435 18.0896 0.224121 17.2229 0.224121V0.224121ZM18.3122 22.0113C18.3122 22.3002 18.1975 22.5773 17.9932 22.7816C17.7889 22.9859 17.5118 23.1006 17.2229 23.1006H4.15058C3.86166 23.1006 3.58458 22.9859 3.38029 22.7816C3.17599 22.5773 3.06122 22.3002 3.06122 22.0113V4.58155C3.06122 4.29264 3.17599 4.01555 3.38029 3.81126C3.58458 3.60696 3.86166 3.49219 4.15058 3.49219H17.2229C17.5118 3.49219 17.7889 3.60696 17.9932 3.81126C18.1975 4.01555 18.3122 4.29264 18.3122 4.58155V22.0113Z" fill="url(#paint0_linear_455_2779)"/>
<path d="M14.5496 13.9306C13.8291 13.2595 12.969 12.7562 12.031 12.4567L11.3033 12.1789V8.693C12.3292 8.7778 13.3365 9.0165 14.2914 9.40109L14.9897 7.6494C13.8176 7.17038 12.5689 6.90617 11.3033 6.86942V5.28223H10.0331V6.88903C9.02042 6.94867 8.04843 7.30857 7.24109 7.92283C6.91273 8.1816 6.64894 8.51308 6.47049 8.89115C6.29204 9.26923 6.2038 9.68357 6.21274 10.1015C6.18972 10.857 6.44697 11.5942 6.93498 12.1713C7.56989 12.8292 8.35487 13.3234 9.22263 13.6115L10.0277 13.9088V17.4896C9.36146 17.4709 8.69956 17.3763 8.05484 17.2074C7.39131 17.0504 6.74613 16.824 6.12994 16.532V18.555C7.36679 19.058 8.69264 19.3055 10.0277 19.2826V21.3001H11.3V19.2227C12.3683 19.1648 13.3923 18.7765 14.2304 18.1116C14.5596 17.8299 14.822 17.4785 14.9986 17.0828C15.1751 16.6871 15.2614 16.2571 15.2511 15.8239C15.2685 15.1263 15.0174 14.4485 14.5496 13.9306V13.9306ZM10.0255 11.7062C9.57014 11.5548 9.15129 11.3103 8.7956 10.9883C8.56643 10.7419 8.44388 10.415 8.45463 10.0787C8.4521 9.91131 8.48686 9.7455 8.55639 9.59325C8.62592 9.441 8.72847 9.30615 8.85661 9.19847C9.19342 8.93358 9.59902 8.77065 10.0255 8.72895V11.7062ZM11.2979 17.409V14.3588C11.7693 14.5064 12.2092 14.7402 12.5953 15.0483C12.7222 15.1638 12.8226 15.3054 12.8895 15.4633C12.9565 15.6213 12.9884 15.7919 12.9831 15.9634C12.9845 16.7542 12.4228 17.2361 11.2979 17.409V17.409Z" fill="url(#paint1_linear_455_2779)"/>
<defs>
<linearGradient id="paint0_linear_455_2779" x1="10.6867" y1="0.224121" x2="10.6867" y2="26.3687" gradientUnits="userSpaceOnUse">
<stop stop-color="#FDC830"/>
<stop offset="1" stop-color="#F37335"/>
</linearGradient>
<linearGradient id="paint1_linear_455_2779" x1="10.691" y1="5.28223" x2="10.691" y2="21.3001" gradientUnits="userSpaceOnUse">
<stop stop-color="#FDC830"/>
<stop offset="1" stop-color="#F37335"/>
</linearGradient>
</defs>
</svg>
