<svg width="19" height="19" viewBox="0 0 19 19" fill="none" xmlns="http://www.w3.org/2000/svg">
<path d="M8.70209 9.81856L7.61769 8.75285C7.48058 8.61574 7.30932 8.54719 7.10391 8.54719C6.89849 8.54719 6.72075 8.62197 6.57068 8.77155C6.43357 8.90866 6.36502 9.08316 6.36502 9.29505C6.36502 9.50695 6.43357 9.68145 6.57068 9.81856L8.17859 11.4265C8.32816 11.576 8.50266 11.6508 8.70209 11.6508C8.90152 11.6508 9.07602 11.576 9.22559 11.4265L12.404 8.24804C12.5536 8.09847 12.6251 7.92397 12.6187 7.72454C12.6122 7.52511 12.5406 7.35061 12.404 7.20103C12.2544 7.05146 12.0769 6.97368 11.8715 6.9677C11.6661 6.96172 11.4884 7.03326 11.3383 7.18234L8.70209 9.81856ZM6.60807 16.5867L5.52367 14.7545L3.46705 14.3057C3.28008 14.2683 3.13051 14.1719 3.01833 14.0163C2.90615 13.8608 2.86252 13.6892 2.88745 13.5018L3.09312 11.3891L1.69087 9.78116C1.56623 9.64405 1.50391 9.48202 1.50391 9.29505C1.50391 9.10809 1.56623 8.94605 1.69087 8.80894L3.09312 7.20103L2.88745 5.08832C2.86252 4.90135 2.90615 4.72984 3.01833 4.57379C3.13051 4.41774 3.28008 4.32126 3.46705 4.28437L5.52367 3.83565L6.60807 2.00338C6.70779 1.84135 6.8449 1.73216 7.0194 1.67582C7.1939 1.61948 7.3684 1.62895 7.5429 1.70424L9.48735 2.52689L11.4318 1.70424C11.6063 1.62945 11.7808 1.61998 11.9553 1.67582C12.1298 1.73166 12.2669 1.84085 12.3666 2.00338L13.451 3.83565L15.5076 4.28437C15.6946 4.32176 15.8442 4.41848 15.9564 4.57454C16.0685 4.73059 16.1122 4.90185 16.0872 5.08832L15.8816 7.20103L17.2838 8.80894C17.4085 8.94605 17.4708 9.10809 17.4708 9.29505C17.4708 9.48202 17.4085 9.64405 17.2838 9.78116L15.8816 11.3891L16.0872 13.5018C16.1122 13.6887 16.0685 13.8603 15.9564 14.0163C15.8442 14.1724 15.6946 14.2688 15.5076 14.3057L13.451 14.7545L12.3666 16.5867C12.2669 16.7488 12.1298 16.8579 11.9553 16.9143C11.7808 16.9706 11.6063 16.9611 11.4318 16.8859L9.48735 16.0632L7.5429 16.8859C7.3684 16.9606 7.1939 16.9701 7.0194 16.9143C6.8449 16.8584 6.70779 16.7493 6.60807 16.5867Z" fill="url(#paint0_linear_181_8958)"/>
<defs>
<linearGradient id="paint0_linear_181_8958" x1="9.48735" y1="1.63965" x2="9.48735" y2="16.9505" gradientUnits="userSpaceOnUse">
<stop stop-color="#192B75"/>
<stop offset="1" stop-color="#2F50DB"/>
</linearGradient>
</defs>
</svg>
