<svg width="14" height="19" viewBox="0 0 14 19" fill="none" xmlns="http://www.w3.org/2000/svg">
<path fill-rule="evenodd" clip-rule="evenodd" d="M12.9997 5.64655V16.6466C12.9997 17.7511 12.1043 18.6466 10.9997 18.6466H2.9997C1.89513 18.6466 0.999696 17.7511 0.999696 16.6466V5.64655H12.9997ZM10.9997 7.64648H2.99971V16.6465H10.9997V7.64648ZM7 0.646484C7.55228 0.646484 8 1.0942 8 1.64648V2.64648H13C13.5523 2.64648 14 3.0942 14 3.64648C14 4.19877 13.5523 4.64648 13 4.64648H1C0.447715 4.64648 0 4.19877 0 3.64648C0 3.0942 0.447715 2.64648 1 2.64648H6V1.64648C6 1.0942 6.44771 0.646484 7 0.646484Z" fill="black"/>
</svg>
