<svg width="20" height="20" viewBox="0 0 20 20" fill="none" xmlns="http://www.w3.org/2000/svg">
<path fill-rule="evenodd" clip-rule="evenodd" d="M5.79007 12.9164L6.52007 9.50641C6.62635 9.03254 6.86574 8.59888 7.21007 8.25641L13.8801 1.64641C14.5565 0.957389 15.4748 0.559196 16.4401 0.536413C17.1681 0.525982 17.8701 0.806787 18.3901 1.31641C19.5263 2.65888 19.3796 4.66363 18.0601 5.82641L11.3901 12.4964C11.0476 12.8408 10.6139 13.0801 10.1401 13.1864L6.73007 13.9164H6.54007C6.29078 13.926 6.05268 13.8125 5.903 13.613C5.75332 13.4134 5.71111 13.1531 5.79007 12.9164ZM8.27007 9.32641C8.12996 9.4622 8.03263 9.636 7.99007 9.82641L7.50007 12.1564L9.83007 11.6564C10.0205 11.6139 10.1943 11.5165 10.3301 11.3764L17.0001 4.70641C17.7308 4.12144 17.8758 3.06689 17.3301 2.30641C17.0911 2.07812 16.7704 1.95558 16.4401 1.96641C15.8706 1.98928 15.3326 2.23321 14.9401 2.64641L8.27007 9.32641Z" fill="black"/>
<path d="M17.9101 8.57641C17.4981 8.5818 17.1655 8.91445 17.1601 9.32641V15.0164C17.1735 15.8207 16.8633 16.5967 16.2993 17.1701C15.7352 17.7436 14.9645 18.0665 14.1601 18.0664H4.63008C2.96745 18.0338 1.63519 16.6794 1.63008 15.0164V5.52641C1.65738 3.8615 3.01494 2.52619 4.68008 2.52641H10.3701C10.7843 2.52641 11.1201 2.19063 11.1201 1.77641C11.1201 1.3622 10.7843 1.02641 10.3701 1.02641H4.63008C2.13658 1.02626 0.107479 3.03307 0.0800781 5.52641V15.0164C0.0800781 17.5293 2.11718 19.5664 4.63008 19.5664H14.1201C16.6291 19.5609 18.6601 17.5254 18.6601 15.0164V9.32641C18.6547 8.91445 18.322 8.5818 17.9101 8.57641Z" fill="black"/>
</svg>
